HIERARCHY
ROOT hip
{
  OFFSET 0 0 0
  CHANNELS 6 Xposition Yposition Zposition Zrotation Yrotation Xrotation
  JOINT abdomen
  {
    OFFSET 0 20.6881 -0.73152
    CHANNELS 3 Zrotation Xrotation Yrotation
    JOINT chest
    {
      OFFSET 0 11.7043 -0.48768
      CHANNELS 3 Zrotation Xrotation Yrotation
      JOINT neck
      {
        OFFSET 0 22.1894 -2.19456
        CHANNELS 3 Zrotation Xrotation Yrotation
        JOINT head
        {
          OFFSET -0.24384 7.07133 1.2192
          CHANNELS 3 Zrotation Xrotation Yrotation
          JOINT leftEye
          {
            OFFSET 4.14528 8.04674 8.04672
            CHANNELS 3 Zrotation Xrotation Yrotation
            End Site
            {
              OFFSET 1 0 0
            }
          }
          JOINT rightEye
          {
            OFFSET -3.6576 8.04674 8.04672
            CHANNELS 3 Zrotation Xrotation Yrotation
            End Site
            {
              OFFSET 1 0 0
            }
          }
        }
      }
      JOINT rCollar
      {
        OFFSET -2.68224 19.2634 -4.8768
        CHANNELS 3 Zrotation Xrotation Yrotation
        JOINT rShldr
        {
          OFFSET -8.77824 -1.95073 1.46304
          CHANNELS 3 Zrotation Xrotation Yrotation
          JOINT rForeArm
          {
            OFFSET -28.1742 -1.7115 0.48768
            CHANNELS 3 Zrotation Xrotation Yrotation
            JOINT rHand
            {
              OFFSET -22.5879 0.773209 7.07136
              CHANNELS 3 Zrotation Xrotation Yrotation
              JOINT rThumb1
              {
                OFFSET -1.2192 -0.487915 3.41376
                CHANNELS 3 Zrotation Xrotation Yrotation
                JOINT rThumb2
                {
                  OFFSET -3.37035 -0.52449 3.41376
                  CHANNELS 3 Zrotation Xrotation Yrotation
                  End Site
                  {
                    OFFSET -1.78271 -1.18214 1.43049
                  }
                }
              }
              JOINT rIndex1
              {
                OFFSET -7.75947 0.938293 5.60832
                CHANNELS 3 Zrotation Xrotation Yrotation
                JOINT rIndex2
                {
                  OFFSET -2.54057 -0.884171 1.56538
                  CHANNELS 3 Zrotation Xrotation Yrotation
                  End Site
                  {
                    OFFSET -1.62519 -0.234802 1.16502
                  }
                }
              }
              JOINT rMid1
              {
                OFFSET -8.24714 1.18213 3.41376
                CHANNELS 3 Zrotation Xrotation Yrotation
                JOINT rMid2
                {
                  OFFSET -3.10165 -0.590103 1.0647
                  CHANNELS 3 Zrotation Xrotation Yrotation
                  End Site
                  {
                    OFFSET -2.48547 -0.328903 0.83742
                  }
                }
              }
              JOINT rRing1
              {
                OFFSET -8.82822 0.546677 1.51678
                CHANNELS 3 Zrotation Xrotation Yrotation
                JOINT rRing2
                {
                  OFFSET -2.60934 -0.819778 -0.0198488
                  CHANNELS 3 Zrotation Xrotation Yrotation
                  End Site
                  {
                    OFFSET -2.33842 -0.294052 0.168128
                  }
                }
              }
              JOINT rPinky1
              {
                OFFSET -8.27202 -0.0477905 -0.4584
                CHANNELS 3 Zrotation Xrotation Yrotation
                JOINT rPinky2
                {
                  OFFSET -1.82734 -0.647385 -0.700984
                  CHANNELS 3 Zrotation Xrotation Yrotation
                  End Site
                  {
                    OFFSET -1.69225 -0.51767 -0.607171
                  }
                }
              }
            }
          }
        }
      }
      JOINT lCollar
      {
        OFFSET 2.68224 19.2634 -4.8768
        CHANNELS 3 Zrotation Xrotation Yrotation
        JOINT lShldr
        {
          OFFSET 8.77824 -1.95073 1.46304
          CHANNELS 3 Zrotation Xrotation Yrotation
          JOINT lForeArm
          {
            OFFSET 28.1742 -1.7115 0.48768
            CHANNELS 3 Zrotation Xrotation Yrotation
            JOINT lHand
            {
              OFFSET 22.5879 0.773209 7.07136
              CHANNELS 3 Zrotation Xrotation Yrotation
              JOINT lThumb1
              {
                OFFSET 1.2192 -0.487915 3.41376
                CHANNELS 3 Zrotation Xrotation Yrotation
                JOINT lThumb2
                {
                  OFFSET 3.37035 -0.52449 3.41376
                  CHANNELS 3 Zrotation Xrotation Yrotation
                  End Site
                  {
                    OFFSET 1.78271 -1.18214 1.43049
                  }
                }
              }
              JOINT lIndex1
              {
                OFFSET 7.75947 0.938293 5.60832
                CHANNELS 3 Zrotation Xrotation Yrotation
                JOINT lIndex2
                {
                  OFFSET 2.54057 -0.884171 1.56538
                  CHANNELS 3 Zrotation Xrotation Yrotation
                  End Site
                  {
                    OFFSET 1.62519 -0.234802 1.16502
                  }
                }
              }
              JOINT lMid1
              {
                OFFSET 8.24714 1.18213 3.41376
                CHANNELS 3 Zrotation Xrotation Yrotation
                JOINT lMid2
                {
                  OFFSET 3.10165 -0.590103 1.0647
                  CHANNELS 3 Zrotation Xrotation Yrotation
                  End Site
                  {
                    OFFSET 2.48547 -0.328903 0.83742
                  }
                }
              }
              JOINT lRing1
              {
                OFFSET 8.82822 0.546677 1.51678
                CHANNELS 3 Zrotation Xrotation Yrotation
                JOINT lRing2
                {
                  OFFSET 2.60934 -0.819778 -0.0198488
                  CHANNELS 3 Zrotation Xrotation Yrotation
                  End Site
                  {
                    OFFSET 2.33842 -0.294052 0.168128
                  }
                }
              }
              JOINT lPinky1
              {
                OFFSET 8.27202 -0.0477905 -0.4584
                CHANNELS 3 Zrotation Xrotation Yrotation
                JOINT lPinky2
                {
                  OFFSET 1.82734 -0.647385 -0.700984
                  CHANNELS 3 Zrotation Xrotation Yrotation
                  End Site
                  {
                    OFFSET 1.69225 -0.51767 -0.607171
                  }
                }
              }
            }
          }
        }
      }
    }
  }
  JOINT rButtock
  {
    OFFSET -8.77824 4.35084 1.2192
    CHANNELS 3 Zrotation Xrotation Yrotation
    JOINT rThigh
    {
      OFFSET 0 -1.70687 -2.19456
      CHANNELS 3 Zrotation Xrotation Yrotation
      JOINT rShin
      {
        OFFSET 0 -36.8199 0.73152
        CHANNELS 3 Zrotation Xrotation Yrotation
        JOINT rFoot
        {
          OFFSET 0.73152 -45.1104 -5.12064
          CHANNELS 3 Zrotation Xrotation Yrotation
          End Site
          {
            OFFSET -1.1221 -3.69964 12.103
          }
        }
      }
    }
  }
  JOINT lButtock
  {
    OFFSET 8.77824 4.35084 1.2192
    CHANNELS 3 Zrotation Xrotation Yrotation
    JOINT lThigh
    {
      OFFSET 0 -1.70687 -2.19456
      CHANNELS 3 Zrotation Xrotation Yrotation
      JOINT lShin
      {
        OFFSET 0 -36.8199 0.73152
        CHANNELS 3 Zrotation Xrotation Yrotation
        JOINT lFoot
        {
          OFFSET -0.73152 -45.1104 -5.12064
          CHANNELS 3 Zrotation Xrotation Yrotation
          End Site
          {
            OFFSET 1.1221 -3.69964 12.103
          }
        }
      }
    }
  }
}
MOTION
Frames:	4
Frame Time:	0.00833333
49.5828 93.5604 62.8402 -70.7729 -94.4976 73.6097 -4.41444 -0.302025 -5.72133 0.935775 -1.96274 -1.61853 -7.46323 5.87177 -6.90762 14.1706 -13.9977 -10.8846 -0.0 0.0 0.0 -0.0 0.0 0.0 2.24823e-13 -3.1643e-12 1.44616e-14 15.0556 -28.6332 -1.29338 -19.7204 -12.6641 38.0054 -0.0788956 -7.98758 -1.12998 1.74322e-09 5.46863e-09 -6.23831e-10 3.01571e-09 9.46244e-09 -1.07538e-09 1.74322e-09 5.46863e-09 -6.23844e-10 7.73091 5.47488 0.417314 1.74323e-09 5.46864e-09 -6.2384e-10 2.90554 0.965183 0.102902 1.74323e-09 5.46863e-09 -6.23835e-10 10.2786 0.731801 0.0259123 1.74321e-09 5.46863e-09 -6.23828e-10 2.22167 -0.733487 -0.20892 2.24842e-13 -3.1643e-12 1.41634e-14 -11.9675 -6.28113 14.1332 22.5513 -16.6082 -45.3069 0.46632 -19.0403 2.78008 8.617e-10 -3.88663e-09 1.2454e-09 1.4632e-09 -6.66345e-09 2.16768e-09 8.61699e-10 -3.88664e-09 1.24541e-09 -7.73091 5.47488 -0.417314 8.617e-10 -3.88663e-09 1.2454e-09 -2.90554 0.965183 -0.102902 8.61691e-10 -3.88663e-09 1.2454e-09 -10.2786 0.731801 -0.0259123 8.61708e-10 -3.88663e-09 1.24539e-09 -2.22167 -0.733487 0.20892 -2.03217e-16 0.0 -3.88251e-19 -9.24429 -21.5194 12.0978 -0.259634 37.3943 0.756541 0.527247 -0.246222 4.79309 2.03217e-16 0.0 3.88251e-19 7.08276 -13.9323 -2.80846 0.168716 30.424 -0.543405 0.162457 2.82263 5.96394
49.7875 93.6414 63.1235 -70.5885 -94.7735 73.6178 -4.70134 -0.313116 -5.53128 0.925817 -1.82374 -1.56386 -7.63194 5.61207 -6.94653 14.2596 -13.8134 -10.905 -0.0 0.0 0.0 -0.0 0.0 0.0 2.29776e-13 -3.12378e-12 2.58094e-14 17.614 -27.9977 -1.50232 -19.482 -12.372 37.4433 -0.0809616 -8.09082 -1.14479 9.29441e-10 1.91591e-10 -2.46098e-10 1.60539e-09 3.24896e-10 -4.2417e-10 9.29443e-10 1.91588e-10 -2.46108e-10 7.73091 5.47488 0.417314 9.29445e-10 1.91598e-10 -2.46107e-10 2.90554 0.965183 0.102902 9.29446e-10 1.91591e-10 -2.46101e-10 10.2786 0.731801 0.0259123 9.29434e-10 1.91594e-10 -2.46094e-10 2.22167 -0.733487 -0.20892 2.29789e-13 -3.12378e-12 2.54972e-14 -14.7282 -6.09205 14.2882 22.2977 -16.2146 -44.5861 0.437321 -18.4898 2.6933 1.73546e-09 -6.44329e-09 1.70878e-10 2.99022e-09 -1.11175e-08 3.17609e-10 1.73547e-09 -6.4433e-09 1.7089e-10 -7.73091 5.47488 -0.417314 1.73547e-09 -6.4433e-09 1.70876e-10 -2.90554 0.965183 -0.102902 1.73546e-09 -6.4433e-09 1.70877e-10 -10.2786 0.731801 -0.0259123 1.73547e-09 -6.44328e-09 1.70868e-10 -2.22167 -0.733487 0.20892 -2.03217e-16 0.0 -3.88251e-19 -8.61798 -22.109 11.5649 -0.273775 38.108 0.763587 0.561164 -0.267239 5.60113 2.03217e-16 0.0 3.88251e-19 6.244 -14.4148 -2.2615 0.177782 31.0924 -0.55489 0.14642 2.81633 4.0507
50.0216 93.6054 63.3299 -67.5536 -94.9213 70.8962 -4.88508 -0.444083 -5.21266 0.854772 -1.61787 -1.47344 -7.79718 5.22113 -7.05035 14.381 -13.4139 -11.0645 -0.0 0.0 0.0 -0.0 0.0 0.0 2.10988e-13 -2.68507e-12 2.86809e-14 20.1251 -27.286 -1.92674 -19.267 -12.1147 36.9357 -0.0882773 -8.45918 -1.19762 -6.75355e-10 -8.98783e-09 3.40314e-10 -1.17386e-09 -1.55674e-08 5.84895e-10 -6.75353e-10 -8.98783e-09 3.40308e-10 7.73091 5.47488 0.417314 -6.75354e-10 -8.98782e-09 3.40307e-10 2.90554 0.965183 0.102902 -6.75351e-10 -8.98783e-09 3.40313e-10 10.2786 0.731801 0.0259123 -6.75362e-10 -8.98782e-09 3.4032e-10 2.22167 -0.733487 -0.20892 2.10971e-13 -2.68507e-12 2.83641e-14 -17.4785 -6.15715 14.1847 21.9964 -15.7561 -43.7608 0.400497 -17.7387 2.57617 2.80111e-09 -9.69662e-09 -1.45542e-09 4.85823e-09 -1.67951e-08 -2.48669e-09 2.80112e-09 -9.69665e-09 -1.45541e-09 -7.73091 5.47488 -0.417314 2.80112e-09 -9.69665e-09 -1.45542e-09 -2.90554 0.965183 -0.102902 2.80111e-09 -9.69665e-09 -1.45542e-09 -10.2786 0.731801 -0.0259123 2.80112e-09 -9.69662e-09 -1.45543e-09 -2.22167 -0.733487 0.20892 -2.03217e-16 0.0 -3.88251e-19 -7.88339 -22.7523 11.1688 -0.288085 38.7997 0.76993 0.603875 -0.299936 6.47982 2.03217e-16 0.0 3.88251e-19 5.50162 -15.0261 -1.75037 0.187653 31.8071 -0.567966 0.115141 2.91201 1.86376
50.219 93.4606 63.5777 -65.0537 -95.3015 68.6187 -5.02332 -0.596168 -4.85937 0.757865 -1.42429 -1.37371 -7.9057 4.81343 -7.1551 14.4511 -12.9764 -11.2465 -0.0 0.0 0.0 -0.0 0.0 0.0 1.77203e-13 -2.07412e-12 2.28525e-14 22.6459 -26.5781 -2.38355 -19.0591 -11.8714 36.4449 -0.0977323 -8.89397 -1.26016 -2.10609e-09 -1.63044e-08 8.56004e-10 -3.65121e-09 -2.82417e-08 1.47219e-09 -2.10609e-09 -1.63044e-08 8.56001e-10 7.73091 5.47488 0.417314 -2.10609e-09 -1.63044e-08 8.55999e-10 2.90554 0.965183 0.102902 -2.10609e-09 -1.63044e-08 8.56004e-10 10.2786 0.731801 0.0259123 -2.1061e-09 -1.63044e-08 8.56012e-10 2.22167 -0.733487 -0.20892 1.77146e-13 -2.07412e-12 2.25403e-14 -20.2028 -6.31679 14.0096 21.6699 -15.2714 -42.8965 0.364309 -16.9378 2.45274 3.5131e-09 -1.1646e-08 -2.84022e-09 6.11163e-09 -2.02133e-08 -4.87694e-09 3.5131e-09 -1.16461e-08 -2.84022e-09 -7.73091 5.47488 -0.417314 3.5131e-09 -1.16461e-08 -2.84022e-09 -2.90554 0.965183 -0.102902 3.5131e-09 -1.16461e-08 -2.84023e-09 -10.2786 0.731801 -0.0259123 3.51311e-09 -1.1646e-08 -2.84024e-09 -2.22167 -0.733487 0.20892 -2.03217e-16 0.0 -3.88251e-19 -7.12549 -23.4083 10.8064 -0.302995 39.4942 0.776448 0.647252 -0.301028 7.38938 2.03217e-16 0.0 3.88251e-19 4.83492 -15.6764 -1.20773 0.198351 32.5597 -0.582227 0.0871235 3.09667 -0.371496
